<svg width="39" height="40" viewBox="0 0 39 40" fill="none" xmlns="http://www.w3.org/2000/svg">
<path d="M27.625 3.35303H11.375C6.88765 3.35303 3.24997 6.99071 3.24997 11.478V27.728C3.24997 32.2153 6.88765 35.853 11.375 35.853H27.625C32.1123 35.853 35.75 32.2153 35.75 27.728V11.478C35.75 6.99071 32.1123 3.35303 27.625 3.35303Z" fill="#FA4A0C"/>
<path d="M26.0001 18.5793C26.2007 19.9317 25.9697 21.3129 25.34 22.5264C24.7103 23.74 23.714 24.7241 22.4928 25.3387C21.2715 25.9534 19.8876 26.1674 18.5378 25.9502C17.188 25.733 15.941 25.0957 14.9742 24.1289C14.0075 23.1622 13.3702 21.9152 13.153 20.5654C12.9358 19.2156 13.1497 17.8316 13.7644 16.6104C14.3791 15.3892 15.3632 14.3929 16.5767 13.7632C17.7903 13.1335 19.1715 12.9025 20.5239 13.103C21.9034 13.3076 23.1805 13.9504 24.1666 14.9365C25.1527 15.9226 25.7956 17.1998 26.0001 18.5793Z" stroke="white" stroke-width="2" stroke-linecap="round" stroke-linejoin="round"/>
<path d="M28.4375 10.6655H28.4538" stroke="white" stroke-width="2" stroke-linecap="round" stroke-linejoin="round"/>
</svg>
